<svg width="365" height="27" viewBox="0 0 365 27" fill="none" xmlns="http://www.w3.org/2000/svg">
<path d="M32.588 20.888C32.588 21.224 32.456 21.464 32.192 21.608C29.552 23.12 27.272 24.212 25.352 24.884C23.456 25.532 21.776 25.904 20.312 26C18.848 26.096 17.54 26 16.388 25.712C15.26 25.424 14.144 25.088 13.04 24.704C12.32 24.464 11.576 24.224 10.808 23.984C10.064 23.744 9.236 23.576 8.324 23.48C7.436 23.36 6.452 23.336 5.372 23.408C4.316 23.48 3.128 23.696 1.808 24.056C1.544 24.128 1.304 24.092 1.088 23.948C0.896 23.78 0.8 23.564 0.8 23.3V1.736C0.8 1.496 0.872 1.304 1.016 1.16C1.184 1.016 1.376 0.943999 1.592 0.943999C3.848 0.943999 5.864 0.931999 7.64 0.907999C9.416 0.883999 11.06 0.859999 12.572 0.835998C14.9 0.811998 16.952 0.799998 18.728 0.799998C20.528 0.799998 22.1 0.835999 23.444 0.907999C24.812 0.98 25.976 1.1 26.936 1.268C27.92 1.436 28.748 1.688 29.42 2.024C30.236 2.432 30.86 2.948 31.292 3.572C31.748 4.172 32.072 4.928 32.264 5.84C32.456 6.752 32.564 7.832 32.588 9.08C32.612 10.328 32.612 11.78 32.588 13.436V20.888ZM31.004 20.456C31.004 20.072 31.004 19.544 31.004 18.872C31.004 18.176 31.004 17.468 31.004 16.748C31.004 16.028 31.004 15.368 31.004 14.768C31.028 14.144 31.04 13.7 31.04 13.436C31.04 11.924 31.028 10.616 31.004 9.512C31.004 8.384 30.932 7.424 30.788 6.632C30.644 5.816 30.416 5.156 30.104 4.652C29.792 4.124 29.336 3.716 28.736 3.428C28.136 3.14 27.38 2.924 26.468 2.78C25.556 2.612 24.44 2.504 23.12 2.456C21.824 2.384 20.3 2.36 18.548 2.384C16.82 2.384 14.828 2.396 12.572 2.42C11.06 2.444 9.44 2.468 7.712 2.492C6.008 2.492 4.244 2.504 2.42 2.528V22.256C4.004 21.896 5.396 21.728 6.596 21.752C7.796 21.752 8.888 21.86 9.872 22.076C10.88 22.292 11.816 22.568 12.68 22.904C13.544 23.216 14.408 23.504 15.272 23.768C16.16 24.032 17.096 24.236 18.08 24.38C19.064 24.5 20.168 24.464 21.392 24.272C22.64 24.08 24.044 23.684 25.604 23.084C27.164 22.484 28.964 21.608 31.004 20.456ZM52.2215 0.979998C54.4055 0.979998 56.4575 1.304 58.3775 1.952C60.2975 2.576 61.9775 3.452 63.4175 4.58C64.9775 5.804 66.1535 7.184 66.9455 8.72C67.7615 10.256 68.1695 11.828 68.1695 13.436C68.1935 15.044 67.8215 16.616 67.0535 18.152C66.2855 19.688 65.1215 21.068 63.5615 22.292C61.9295 23.564 60.1295 24.512 58.1615 25.136C56.1935 25.76 54.1895 26.072 52.1495 26.072C50.1335 26.072 48.1535 25.772 46.2095 25.172C44.2895 24.572 42.5615 23.672 41.0255 22.472C39.4415 21.248 38.2415 19.856 37.4255 18.296C36.6335 16.736 36.2375 15.152 36.2375 13.544C36.2375 11.912 36.6335 10.316 37.4255 8.756C38.2415 7.196 39.4415 5.804 41.0255 4.58C42.4655 3.452 44.1455 2.576 46.0655 1.952C47.9855 1.304 50.0375 0.979998 52.2215 0.979998ZM62.4815 5.84C61.0655 4.76 59.4575 3.944 57.6575 3.392C55.8815 2.84 54.0695 2.564 52.2215 2.564C50.3735 2.564 48.5495 2.84 46.7495 3.392C44.9735 3.944 43.3895 4.76 41.9975 5.84C40.6055 6.92 39.5615 8.132 38.8655 9.476C38.1695 10.796 37.8215 12.152 37.8215 13.544C37.8215 14.936 38.1695 16.304 38.8655 17.648C39.5615 18.968 40.6055 20.156 41.9975 21.212C43.5095 22.388 45.1655 23.24 46.9655 23.768C48.7655 24.272 50.5775 24.512 52.4015 24.488C54.2255 24.44 55.9895 24.14 57.6935 23.588C59.3975 23.036 60.9095 22.28 62.2295 21.32C63.5495 20.36 64.6055 19.22 65.3975 17.9C66.1895 16.58 66.5855 15.128 66.5855 13.544C66.5855 12.032 66.2135 10.628 65.4695 9.332C64.7495 8.012 63.7535 6.848 62.4815 5.84ZM102.128 21.104C101.984 19.76 101.552 18.596 100.832 17.612C100.112 16.628 99.1756 15.776 98.0236 15.056C96.8956 14.312 95.5996 13.676 94.1356 13.148C92.6956 12.596 91.1836 12.104 89.5996 11.672C88.0396 11.216 86.4556 10.784 84.8476 10.376C83.2636 9.968 81.7516 9.536 80.3116 9.08C78.8716 8.624 77.5516 8.12 76.3516 7.568C75.1516 6.992 74.1796 6.32 73.4356 5.552L73.5436 25.244C73.5436 25.508 73.4596 25.712 73.2916 25.856C73.1236 25.976 72.9436 26.036 72.7516 26.036C72.5596 26.036 72.3796 25.976 72.2116 25.856C72.0436 25.712 71.9596 25.508 71.9596 25.244L71.8156 1.7C71.8156 1.436 71.8996 1.244 72.0676 1.124C72.2356 0.979999 72.4156 0.907999 72.6076 0.907999C72.7996 0.907999 72.9796 0.979999 73.1476 1.124C73.3156 1.244 73.3996 1.436 73.3996 1.7C73.3996 2.684 73.7236 3.536 74.3716 4.256C75.0436 4.976 75.9316 5.612 77.0356 6.164C78.1396 6.692 79.4116 7.172 80.8516 7.604C82.3156 8.036 83.8396 8.468 85.4236 8.9C87.0316 9.308 88.6516 9.74 90.2836 10.196C91.9396 10.628 93.5116 11.144 94.9996 11.744C96.5116 12.344 97.8796 13.04 99.1036 13.832C100.352 14.624 101.36 15.56 102.128 16.64L102.02 1.7C102.02 1.436 102.104 1.244 102.272 1.124C102.44 0.979999 102.62 0.907999 102.812 0.907999C103.004 0.907999 103.184 0.979999 103.352 1.124C103.52 1.244 103.604 1.436 103.604 1.7L103.748 25.244C103.748 25.508 103.664 25.712 103.496 25.856C103.328 25.976 103.148 26.036 102.956 26.036C102.764 26.036 102.584 25.976 102.416 25.856C102.248 25.712 102.164 25.508 102.164 25.244L102.128 21.104ZM108.439 24.056C108.199 24.128 107.959 24.092 107.719 23.948C107.479 23.804 107.359 23.588 107.359 23.3V1.736C107.359 1.52 107.431 1.34 107.575 1.196C107.743 1.028 107.935 0.943999 108.151 0.943999H136.699C136.963 0.943999 137.155 1.028 137.275 1.196C137.419 1.364 137.491 1.544 137.491 1.736C137.491 1.928 137.419 2.108 137.275 2.276C137.155 2.444 136.963 2.528 136.699 2.528H108.943V14.12C109.975 13.76 111.031 13.616 112.111 13.688C113.191 13.76 114.283 13.916 115.387 14.156C116.491 14.396 117.595 14.672 118.699 14.984C119.827 15.272 120.955 15.476 122.083 15.596C123.235 15.692 124.387 15.644 125.539 15.452C126.691 15.26 127.831 14.792 128.959 14.048C129.175 13.904 129.379 13.868 129.571 13.94C129.763 14.012 129.907 14.132 130.003 14.3C130.123 14.444 130.171 14.624 130.147 14.84C130.147 15.056 130.039 15.236 129.823 15.38C128.527 16.22 127.243 16.76 125.971 17C124.699 17.24 123.439 17.312 122.191 17.216C120.967 17.096 119.767 16.88 118.591 16.568C117.415 16.256 116.263 15.98 115.135 15.74C114.031 15.5 112.951 15.356 111.895 15.308C110.863 15.236 109.879 15.404 108.943 15.812V22.292C110.239 22.004 111.415 21.836 112.471 21.788C113.527 21.74 114.499 21.776 115.387 21.896C116.299 22.016 117.139 22.196 117.907 22.436C118.699 22.676 119.467 22.928 120.211 23.192C120.883 23.432 121.555 23.66 122.227 23.876C122.923 24.068 123.655 24.224 124.423 24.344C125.191 24.44 126.019 24.464 126.907 24.416C127.795 24.344 128.791 24.164 129.895 23.876C130.999 23.564 132.211 23.12 133.531 22.544C134.875 21.968 136.375 21.2 138.031 20.24C138.247 20.096 138.451 20.072 138.643 20.168C138.859 20.24 139.015 20.36 139.111 20.528C139.207 20.696 139.231 20.888 139.183 21.104C139.159 21.296 139.039 21.464 138.823 21.608C136.183 23.12 133.903 24.212 131.983 24.884C130.087 25.532 128.407 25.904 126.943 26C125.479 26.096 124.171 26 123.019 25.712C121.891 25.424 120.775 25.088 119.671 24.704C118.951 24.464 118.207 24.224 117.439 23.984C116.695 23.744 115.867 23.576 114.955 23.48C114.067 23.36 113.083 23.336 112.003 23.408C110.947 23.48 109.759 23.696 108.439 24.056ZM172.566 25.208C172.566 25.472 172.47 25.676 172.278 25.82C172.11 25.94 171.93 26 171.738 26C171.546 26 171.366 25.94 171.198 25.82C171.03 25.676 170.946 25.472 170.946 25.208L170.982 19.628C170.982 18.836 170.862 18.044 170.622 17.252C170.382 16.46 169.902 15.752 169.182 15.128C168.534 14.552 167.646 14.072 166.518 13.688C165.39 13.304 163.914 13.052 162.09 12.932C160.698 13.004 159.462 12.896 158.382 12.608C157.302 12.32 156.234 11.984 155.178 11.6C154.482 11.36 153.762 11.132 153.018 10.916C152.298 10.676 151.506 10.508 150.642 10.412C149.802 10.292 148.878 10.256 147.87 10.304C146.886 10.352 145.77 10.52 144.522 10.808L144.45 25.208C144.45 25.472 144.366 25.676 144.198 25.82C144.03 25.94 143.85 26 143.658 26C143.466 26 143.286 25.94 143.118 25.82C142.95 25.676 142.866 25.472 142.866 25.208L142.974 1.7C142.974 1.46 143.046 1.268 143.19 1.124C143.358 0.979999 143.55 0.907999 143.766 0.907999H163.926C165.222 0.907999 166.338 1.124 167.274 1.556C168.21 1.988 168.954 2.552 169.506 3.248C170.082 3.944 170.454 4.724 170.622 5.588C170.814 6.428 170.79 7.256 170.55 8.072C170.31 8.888 169.866 9.656 169.218 10.376C168.57 11.096 167.694 11.66 166.59 12.068C168.63 12.644 170.13 13.568 171.09 14.84C172.074 16.088 172.566 17.684 172.566 19.628V25.208ZM144.522 9.188C145.818 8.9 146.994 8.744 148.05 8.72C149.106 8.672 150.078 8.708 150.966 8.828C151.854 8.948 152.682 9.128 153.45 9.368C154.218 9.608 154.962 9.86 155.682 10.124C156.33 10.34 156.894 10.532 157.374 10.7C157.878 10.844 158.358 10.964 158.814 11.06C159.27 11.156 159.75 11.228 160.254 11.276C160.758 11.324 161.358 11.348 162.054 11.348C162.51 11.348 163.002 11.3 163.53 11.204C164.082 11.084 164.634 10.964 165.186 10.844C166.146 10.628 166.926 10.28 167.526 9.8C168.15 9.296 168.594 8.732 168.858 8.108C169.122 7.484 169.218 6.848 169.146 6.2C169.074 5.528 168.822 4.916 168.39 4.364C167.982 3.812 167.406 3.368 166.662 3.032C165.918 2.672 165.006 2.492 163.926 2.492H144.558L144.522 9.188Z" fill="#FDCA21"/>
<path d="M222.707 1.7C222.707 1.436 222.791 1.244 222.959 1.124C223.127 0.979999 223.307 0.907999 223.499 0.907999C223.691 0.907999 223.871 0.979999 224.039 1.124C224.207 1.244 224.291 1.436 224.291 1.7L224.435 25.244C224.435 25.508 224.351 25.712 224.183 25.856C224.015 25.976 223.835 26.036 223.643 26.036C223.451 26.036 223.271 25.976 223.103 25.856C222.935 25.712 222.851 25.508 222.851 25.244L222.707 1.7ZM195.815 13.724C197.183 13.34 198.431 13.148 199.559 13.148C200.687 13.124 201.731 13.232 202.691 13.472C203.651 13.688 204.563 13.988 205.427 14.372C206.291 14.756 207.143 15.152 207.983 15.56C208.823 15.944 209.675 16.304 210.539 16.64C211.427 16.952 212.375 17.168 213.383 17.288C214.391 17.384 215.483 17.336 216.659 17.144C217.859 16.952 219.179 16.532 220.619 15.884C220.859 15.788 221.063 15.788 221.231 15.884C221.423 15.98 221.555 16.124 221.627 16.316C221.723 16.484 221.735 16.676 221.663 16.892C221.615 17.108 221.471 17.264 221.231 17.36C219.527 18.104 218.003 18.572 216.659 18.764C215.315 18.956 214.067 18.98 212.915 18.836C211.787 18.692 210.731 18.428 209.747 18.044C208.787 17.636 207.827 17.204 206.867 16.748C206.099 16.388 205.319 16.052 204.527 15.74C203.735 15.404 202.895 15.152 202.007 14.984C201.119 14.792 200.171 14.72 199.163 14.768C198.155 14.792 197.039 14.996 195.815 15.38L195.887 25.244C195.887 25.508 195.803 25.712 195.635 25.856C195.467 25.976 195.287 26.036 195.095 26.036C194.903 26.036 194.723 25.976 194.555 25.856C194.387 25.712 194.303 25.508 194.303 25.244L194.159 1.7C194.159 1.436 194.243 1.244 194.411 1.124C194.579 0.979999 194.759 0.907999 194.951 0.907999C195.143 0.907999 195.323 0.979999 195.491 1.124C195.659 1.244 195.743 1.436 195.743 1.7L195.815 13.724ZM244.034 0.979998C246.218 0.979998 248.27 1.304 250.19 1.952C252.11 2.576 253.79 3.452 255.23 4.58C256.79 5.804 257.966 7.184 258.758 8.72C259.574 10.256 259.982 11.828 259.982 13.436C260.006 15.044 259.634 16.616 258.866 18.152C258.098 19.688 256.934 21.068 255.374 22.292C253.742 23.564 251.942 24.512 249.974 25.136C248.006 25.76 246.002 26.072 243.962 26.072C241.946 26.072 239.966 25.772 238.022 25.172C236.102 24.572 234.374 23.672 232.838 22.472C231.254 21.248 230.054 19.856 229.238 18.296C228.446 16.736 228.05 15.152 228.05 13.544C228.05 11.912 228.446 10.316 229.238 8.756C230.054 7.196 231.254 5.804 232.838 4.58C234.278 3.452 235.958 2.576 237.878 1.952C239.798 1.304 241.85 0.979998 244.034 0.979998ZM254.294 5.84C252.878 4.76 251.27 3.944 249.47 3.392C247.694 2.84 245.882 2.564 244.034 2.564C242.186 2.564 240.362 2.84 238.562 3.392C236.786 3.944 235.202 4.76 233.81 5.84C232.418 6.92 231.374 8.132 230.678 9.476C229.982 10.796 229.634 12.152 229.634 13.544C229.634 14.936 229.982 16.304 230.678 17.648C231.374 18.968 232.418 20.156 233.81 21.212C235.322 22.388 236.978 23.24 238.778 23.768C240.578 24.272 242.39 24.512 244.214 24.488C246.038 24.44 247.802 24.14 249.506 23.588C251.21 23.036 252.722 22.28 254.042 21.32C255.362 20.36 256.418 19.22 257.21 17.9C258.002 16.58 258.398 15.128 258.398 13.544C258.398 12.032 258.026 10.628 257.282 9.332C256.562 8.012 255.566 6.848 254.294 5.84ZM293.76 1.664C293.76 1.4 293.844 1.208 294.012 1.088C294.18 0.943999 294.36 0.872 294.552 0.872C294.744 0.872 294.924 0.943999 295.092 1.088C295.26 1.208 295.344 1.4 295.344 1.664V13.364C295.368 14.948 295.38 16.364 295.38 17.612C295.404 18.86 295.32 19.952 295.128 20.888C294.936 21.824 294.588 22.628 294.084 23.3C293.604 23.948 292.872 24.476 291.888 24.884C290.736 25.364 289.176 25.676 287.208 25.82C285.24 25.964 282.672 26.036 279.504 26.036C276.336 26.036 273.768 25.964 271.8 25.82C269.832 25.676 268.272 25.364 267.12 24.884C266.112 24.452 265.356 23.912 264.852 23.264C264.372 22.592 264.036 21.788 263.844 20.852C263.676 19.892 263.604 18.8 263.628 17.576C263.652 16.328 263.664 14.924 263.664 13.364V1.664C263.664 1.4 263.748 1.208 263.916 1.088C264.084 0.943999 264.264 0.872 264.456 0.872C264.648 0.872 264.828 0.943999 264.996 1.088C265.164 1.208 265.248 1.4 265.248 1.664V13.292V14.048C265.224 15.464 265.212 16.7 265.212 17.756C265.212 18.788 265.284 19.688 265.428 20.456C265.596 21.2 265.848 21.812 266.184 22.292C266.544 22.772 267.06 23.144 267.732 23.408C268.764 23.84 270.216 24.116 272.088 24.236C273.96 24.356 276.432 24.428 279.504 24.452C282.576 24.428 285.048 24.356 286.92 24.236C288.792 24.116 290.244 23.84 291.276 23.408C292.044 23.096 292.596 22.652 292.932 22.076C293.292 21.476 293.532 20.756 293.652 19.916C293.772 19.076 293.82 18.116 293.796 17.036C293.772 15.932 293.76 14.708 293.76 13.364V1.664ZM299.822 26C299.558 26 299.354 25.916 299.21 25.748C299.09 25.58 299.03 25.4 299.03 25.208C299.03 25.016 299.09 24.836 299.21 24.668C299.354 24.5 299.558 24.416 299.822 24.416H307.382C309.854 24.44 312.05 24.452 313.97 24.452C315.89 24.452 317.57 24.428 319.01 24.38C320.45 24.308 321.674 24.2 322.682 24.056C323.69 23.912 324.518 23.696 325.166 23.408C325.814 23.144 326.306 22.796 326.642 22.364C327.002 21.908 327.254 21.332 327.398 20.636C327.566 19.94 327.662 19.112 327.686 18.152C327.71 17.168 327.71 16.028 327.686 14.732C326.318 15.452 324.974 15.896 323.654 16.064C322.358 16.232 321.086 16.232 319.838 16.064C318.59 15.896 317.354 15.608 316.13 15.2C314.93 14.792 313.754 14.372 312.602 13.94C311.474 13.484 310.37 13.076 309.29 12.716C308.21 12.356 307.154 12.14 306.122 12.068C305.114 11.972 304.13 12.068 303.17 12.356C302.234 12.644 301.322 13.232 300.434 14.12C300.314 14.24 300.17 14.312 300.002 14.336C299.858 14.36 299.714 14.348 299.57 14.3C299.426 14.228 299.306 14.132 299.21 14.012C299.138 13.868 299.102 13.7 299.102 13.508C299.054 11.756 299.03 10.244 299.03 8.972C299.054 7.676 299.162 6.572 299.354 5.66C299.546 4.724 299.858 3.956 300.29 3.356C300.746 2.756 301.394 2.276 302.234 1.916C303.074 1.556 304.142 1.304 305.438 1.16C306.734 0.991999 308.33 0.883999 310.226 0.835998C312.77 0.787998 315.506 0.787998 318.434 0.835998C321.362 0.859999 324.386 0.872 327.506 0.872C327.77 0.872 327.962 0.955999 328.082 1.124C328.226 1.292 328.298 1.472 328.298 1.664C328.298 1.856 328.226 2.036 328.082 2.204C327.962 2.372 327.77 2.456 327.506 2.456C326.21 2.456 324.794 2.456 323.258 2.456C321.722 2.432 320.174 2.42 318.614 2.42C317.078 2.396 315.59 2.384 314.15 2.384C312.71 2.384 311.414 2.396 310.262 2.42C307.958 2.468 306.158 2.636 304.862 2.924C303.566 3.188 302.594 3.668 301.946 4.364C301.322 5.036 300.938 5.972 300.794 7.172C300.65 8.372 300.602 9.932 300.65 11.852C301.61 11.156 302.582 10.712 303.566 10.52C304.574 10.328 305.594 10.304 306.626 10.448C307.658 10.568 308.702 10.82 309.758 11.204C310.838 11.564 311.942 11.96 313.07 12.392C314.222 12.848 315.398 13.28 316.598 13.688C317.798 14.096 319.022 14.372 320.27 14.516C321.518 14.66 322.79 14.612 324.086 14.372C325.382 14.132 326.69 13.58 328.01 12.716C328.274 12.548 328.538 12.536 328.802 12.68C329.09 12.824 329.234 13.064 329.234 13.4C329.234 14.96 329.246 16.364 329.27 17.612C329.294 18.836 329.21 19.928 329.018 20.888C328.85 21.824 328.514 22.628 328.01 23.3C327.53 23.948 326.786 24.476 325.778 24.884C325.034 25.172 324.134 25.4 323.078 25.568C322.022 25.736 320.75 25.856 319.262 25.928C317.774 26 316.046 26.036 314.078 26.036C312.134 26.036 309.902 26.036 307.382 26.036C306.398 26.012 305.318 26 304.142 26C302.99 26 301.55 26 299.822 26ZM334.001 24.056C333.761 24.128 333.521 24.092 333.281 23.948C333.041 23.804 332.921 23.588 332.921 23.3V1.736C332.921 1.52 332.993 1.34 333.137 1.196C333.305 1.028 333.497 0.943999 333.713 0.943999H362.261C362.525 0.943999 362.717 1.028 362.837 1.196C362.981 1.364 363.053 1.544 363.053 1.736C363.053 1.928 362.981 2.108 362.837 2.276C362.717 2.444 362.525 2.528 362.261 2.528H334.505V14.12C335.537 13.76 336.593 13.616 337.673 13.688C338.753 13.76 339.845 13.916 340.949 14.156C342.053 14.396 343.157 14.672 344.261 14.984C345.389 15.272 346.517 15.476 347.645 15.596C348.797 15.692 349.949 15.644 351.101 15.452C352.253 15.26 353.393 14.792 354.521 14.048C354.737 13.904 354.941 13.868 355.133 13.94C355.325 14.012 355.469 14.132 355.565 14.3C355.685 14.444 355.733 14.624 355.709 14.84C355.709 15.056 355.601 15.236 355.385 15.38C354.089 16.22 352.805 16.76 351.533 17C350.261 17.24 349.001 17.312 347.753 17.216C346.529 17.096 345.329 16.88 344.153 16.568C342.977 16.256 341.825 15.98 340.697 15.74C339.593 15.5 338.513 15.356 337.457 15.308C336.425 15.236 335.441 15.404 334.505 15.812V22.292C335.801 22.004 336.977 21.836 338.033 21.788C339.089 21.74 340.061 21.776 340.949 21.896C341.861 22.016 342.701 22.196 343.469 22.436C344.261 22.676 345.029 22.928 345.773 23.192C346.445 23.432 347.117 23.66 347.789 23.876C348.485 24.068 349.217 24.224 349.985 24.344C350.753 24.44 351.581 24.464 352.469 24.416C353.357 24.344 354.353 24.164 355.457 23.876C356.561 23.564 357.773 23.12 359.093 22.544C360.437 21.968 361.937 21.2 363.593 20.24C363.809 20.096 364.013 20.072 364.205 20.168C364.421 20.24 364.577 20.36 364.673 20.528C364.769 20.696 364.793 20.888 364.745 21.104C364.721 21.296 364.601 21.464 364.385 21.608C361.745 23.12 359.465 24.212 357.545 24.884C355.649 25.532 353.969 25.904 352.505 26C351.041 26.096 349.733 26 348.581 25.712C347.453 25.424 346.337 25.088 345.233 24.704C344.513 24.464 343.769 24.224 343.001 23.984C342.257 23.744 341.429 23.576 340.517 23.48C339.629 23.36 338.645 23.336 337.565 23.408C336.509 23.48 335.321 23.696 334.001 24.056Z" fill="#262626"/>
</svg>
